<?xml version="1.0" encoding="UTF-8"?>
<svg id="_レイヤー_2" data-name="レイヤー 2" xmlns="http://www.w3.org/2000/svg" viewBox="0 0 24.55 25.84">
  <defs>
    <style>
      .cls-1 {
        fill: #333;
      }
    </style>
  </defs>
  <g id="_レイヤー_1-2" data-name="レイヤー 1">
    <path class="cls-1" d="M21.04,25.84c-.27-1.22-.65-2.41-1.05-3.47l-1.77-4.39H6.36l-1.77,4.39c-.51,1.29-.82,2.28-1.05,3.47H0c.68-1.12.92-1.63,1.84-3.91L9.45,3.16c.65-1.6.92-2.38,1.09-3.16h3.43c.14.65.31,1.09,1.16,3.16l7.62,18.77c.85,2.04,1.29,3.03,1.8,3.91h-3.5ZM13.02,4.42c-.1-.27-.1-.31-.75-2.18-.17.51-.31.88-.37,1.12-.2.54-.31.92-.37,1.05l-4.35,11.22h10.23l-4.38-11.22Z"/>
  </g>
</svg>