<?xml version="1.0" encoding="UTF-8"?>
<svg id="_レイヤー_2" data-name="レイヤー 2" xmlns="http://www.w3.org/2000/svg" viewBox="0 0 86.3 33.54">
  <defs>
    <style>
      .cls-1 {
        fill: #fff;
      }
    </style>
  </defs>
  <g id="_レイヤー_1-2" data-name="レイヤー 1">
    <g>
      <path class="cls-1" d="M15.24,4.51H4.77v8.36h9.65v4H4.77v11.73H0V.47h15.24v4.04Z"/>
      <path class="cls-1" d="M23.91,28.6L34.42.47h5.42l10.44,28.13h-5.26l-2.35-6.73h-11.24l-2.29,6.73h-5.22ZM32.66,17.97h8.71l-3.85-11.1c-.09-.29-.17-.58-.25-.87-.07-.29-.14-.66-.21-1.09h-.12c-.07.38-.13.72-.21,1.03-.07.31-.15.61-.25.89l-3.84,11.14Z"/>
      <path class="cls-1" d="M72.55,29.07c-4,0-7.24-1.31-9.72-3.93-2.48-2.62-3.72-6.04-3.72-10.25,0-4.5,1.26-8.1,3.77-10.82s5.89-4.07,10.12-4.07c3.94,0,7.1,1.31,9.5,3.92,2.4,2.62,3.6,6.06,3.6,10.34,0,2.6-.41,4.93-1.22,6.98-.81,2.05-2,3.69-3.57,4.9l4.98,3.96-3.37,3.43-5.69-5.08c-.67.18-1.42.33-2.26.44-.84.11-1.65.17-2.43.17ZM72.81,4.2c-2.6,0-4.7.95-6.29,2.85-1.59,1.9-2.38,4.41-2.38,7.52s.78,5.61,2.33,7.49c1.56,1.88,3.6,2.82,6.14,2.82s4.73-.9,6.24-2.71,2.26-4.32,2.26-7.53-.73-5.89-2.19-7.72-3.5-2.74-6.11-2.74Z"/>
    </g>
  </g>
</svg>