<?xml version="1.0" encoding="UTF-8"?>
<svg id="_レイヤー_2" data-name="レイヤー 2" xmlns="http://www.w3.org/2000/svg" viewBox="0 0 90 90">
  <defs>
    <style>
      .cls-1, .cls-2 {
        fill: none;
      }

      .cls-2 {
        stroke: #fff;
        stroke-miterlimit: 10;
        stroke-width: 3px;
      }
    </style>
  </defs>
  <g id="_レイヤー_1-2" data-name="レイヤー 1">
    <g>
      <g>
        <path class="cls-2" d="M51.13,40.92h19.15v4.99c0,8.27-6.71,14.98-14.98,14.98h-16.03c-8.27,0-14.98-6.71-14.98-14.98v-4.99h13.97"/>
        <circle class="cls-2" cx="30.53" cy="67.85" r="4.23" transform="translate(-27.55 21.35) rotate(-27.09)"/>
        <circle class="cls-2" cx="64.05" cy="67.85" r="4.23" transform="translate(-25.52 93.97) rotate(-62.91)"/>
        <path class="cls-2" d="M8.38,30.91h6.07c2.01,0,4,.67,5.61,1.87l10.66,8.02"/>
        <g>
          <path class="cls-2" d="M51.13,40.92h19.15c0-12.7-10.29-22.99-22.99-22.99v19.15"/>
          <line class="cls-2" x1="50.7" y1="38.95" x2="67.21" y2="29.42"/>
          <line class="cls-2" x1="49.31" y1="37.42" x2="58.79" y2="21"/>
        </g>
        <circle class="cls-2" cx="47.29" cy="40.92" r="3.84" transform="translate(-14.95 34.81) rotate(-35.27)"/>
      </g>
      <rect class="cls-1" width="90" height="90"/>
    </g>
  </g>
</svg>