<?xml version="1.0" encoding="UTF-8"?>
<svg id="_レイヤー_2" data-name="レイヤー 2" xmlns="http://www.w3.org/2000/svg" viewBox="0 0 90 90">
  <defs>
    <style>
      .cls-1, .cls-2 {
        fill: none;
      }

      .cls-2 {
        stroke: #fff;
        stroke-miterlimit: 10;
        stroke-width: 3px;
      }
    </style>
  </defs>
  <g id="_レイヤー_1-2" data-name="レイヤー 1">
    <g>
      <g>
        <path class="cls-2" d="M37.96,62.68l-3.4,8.12h20.88l-4.16-9.94h-3.29v-8.51c9.14-5.84,17.2-8.09,17.3-19.09v-14.04H24.72v14.04c.1,11,7.94,13.25,17.3,19.09v8.51"/>
        <path class="cls-2" d="M30.24,24.71v7.54c.06,6.27,3.43,8.8,8.12,11.55"/>
        <path class="cls-2" d="M67.23,40.23c.51-.09,1.01-.22,1.48-.4,3.28-1.21,5.63-4.37,5.63-8.07,0-4.75-3.85-8.6-8.6-8.6-.16,0-.31.02-.47.02"/>
        <path class="cls-2" d="M24.72,23.19c-.16,0-.31-.02-.47-.02-4.75,0-8.6,3.85-8.6,8.6s3.85,8.6,8.6,8.6c.61,0,1.21-.07,1.78-.19"/>
      </g>
      <rect class="cls-1" width="90" height="90"/>
    </g>
  </g>
</svg>