<?xml version="1.0" encoding="UTF-8"?>
<svg id="_レイヤー_2" data-name="レイヤー 2" xmlns="http://www.w3.org/2000/svg" viewBox="0 0 90 90">
  <defs>
    <style>
      .cls-1, .cls-2 {
        fill: none;
      }

      .cls-3 {
        fill: #3f70f5;
      }

      .cls-2 {
        stroke: #3f70f5;
        stroke-miterlimit: 10;
        stroke-width: 2.4px;
      }
    </style>
  </defs>
  <g id="_レイヤー_1-2" data-name="レイヤー 1">
    <g>
      <g>
        <g>
          <path class="cls-3" d="M30.16,39.21s0-.07-.03-.09c-.02-.02-.05-.04-.09-.04h-2.82c-.06,0-.1.04-.11.09-.1.53-.22,1.01-.54,1.8l-2.99,7.33-3-7.33c-.26-.64-.45-1.28-.56-1.8-.01-.05-.06-.09-.11-.09h-2.8s-.07.01-.09.04c-.02.03-.03.06-.03.09.09.6.12,1.23.12,2.25v7.69c0,1.04-.03,1.62-.12,2.22,0,.03,0,.07.03.09.02.02.05.04.09.04h2.14s.07-.01.09-.04c.02-.03.03-.06.03-.09-.09-.58-.12-1.16-.12-2.22v-5.02c0-.21-.02-.78-.06-1.38.17.56.3.9.5,1.36l2.2,5.25c.37.91.6,1.59.67,2.04,0,.06.06.1.11.1h1.81c.06,0,.1-.04.11-.09.09-.48.38-1.34.67-2.01l2.3-5.39c.07-.17.24-.63.42-1.22-.02.34-.04.77-.06,1.28v5.08c0,1.05-.03,1.59-.12,2.22,0,.03,0,.07.03.09.02.02.05.04.09.04h2.14s.07-.01.09-.04.03-.06.03-.09c-.09-.56-.12-1.1-.12-2.22v-7.69c0-.99.03-1.5.12-2.25Z"/>
          <path class="cls-3" d="M39.67,38.84c-1.67,0-2.95.5-4.03,1.56-1.15,1.12-1.78,2.84-1.78,4.86,0,3.95,2.29,6.5,5.83,6.5s5.84-2.55,5.84-6.5c0-2.03-.6-3.71-1.75-4.86-1.05-1.05-2.4-1.57-4.11-1.57ZM39.71,49.71c-.9,0-1.69-.31-2.29-.9-.78-.78-1.21-2.03-1.21-3.53,0-2.72,1.33-4.4,3.48-4.4.89,0,1.67.31,2.28.9.77.77,1.18,1.98,1.18,3.49,0,2.74-1.32,4.45-3.44,4.45Z"/>
          <path class="cls-3" d="M56.53,45.57c.68-.22,1.04-.43,1.42-.82.54-.56.81-1.35.81-2.36,0-2.1-1.38-3.3-3.77-3.3h-3.68c-.83,0-1.31-.02-1.95-.05-.04,0-.07.01-.09.04-.02.02-.03.06-.03.09.09.73.12,1.2.12,1.98v8.25c0,.96-.04,1.37-.12,1.97,0,.03,0,.07.03.09.02.03.05.04.09.04h2.28s.07-.01.09-.04c.02-.03.03-.06.03-.09-.09-.59-.12-1.08-.12-1.99v-3.01h2.17c1.12,0,1.62.54,2.44,2.61.52,1.33.76,2.08.79,2.42,0,.06.06.11.11.11h2.53s.08-.02.1-.06c.02-.03.02-.08,0-.11-.22-.42-.6-1.25-.72-1.51-1.35-3.19-1.74-3.91-2.51-4.26ZM56.42,42.61c0,.55-.15.96-.46,1.27-.33.33-.83.52-1.37.52h-2.96v-3.34h3.02c1.19,0,1.77.51,1.77,1.55Z"/>
          <path class="cls-3" d="M72.11,49.37s-.06-.03-.09-.03c-.63.07-1.06.11-1.95.11h-4.48v-3.38h3.62c.94,0,1.35.02,1.97.11.04,0,.07,0,.09-.03.02-.02.04-.05.04-.09v-2.01s-.01-.06-.04-.09c-.02-.02-.06-.03-.09-.03-.69.08-1.21.11-1.98.11h-3.61v-2.93h4.29c.86,0,1.35.03,1.96.11.03,0,.07,0,.09-.03.02-.02.04-.05.04-.09v-2.02s-.01-.06-.04-.09c-.02-.02-.05-.03-.09-.03-.74.08-1.23.11-1.96.11h-4.62c-.91,0-1.31-.01-1.94-.05-.04,0-.07.01-.09.04-.02.03-.03.06-.03.09.09.73.12,1.19.12,1.96v8.28c0,.89-.03,1.4-.12,2,0,.03,0,.07.03.09.02.02.05.04.09.04h0c.63-.03,1.04-.05,1.94-.05h4.78c.89,0,1.39.03,1.96.11,0,0,.01,0,.02,0,.03,0,.05,0,.08-.03.03-.02.04-.05.04-.09v-2.04s-.01-.06-.04-.09Z"/>
        </g>
        <circle class="cls-2" cx="45" cy="45" r="35.14"/>
      </g>
      <rect class="cls-1" width="90" height="90"/>
    </g>
  </g>
</svg>