<?xml version="1.0" encoding="UTF-8"?>
<svg id="_レイヤー_2" data-name="レイヤー 2" xmlns="http://www.w3.org/2000/svg" viewBox="0 0 90 90">
  <defs>
    <style>
      .cls-1, .cls-2 {
        fill: none;
      }

      .cls-2 {
        stroke: #fff;
        stroke-miterlimit: 10;
        stroke-width: 3px;
      }
    </style>
  </defs>
  <g id="_レイヤー_1-2" data-name="レイヤー 1">
    <g>
      <g>
        <path class="cls-2" d="M52.81,21.37h-25.45c-2.93-.1-5.38,2.18-5.49,5.11v38.32c.11,2.93,2.57,5.21,5.49,5.11h28.77"/>
        <polyline class="cls-2" points="57.91 60.97 63.02 69.91 68.13 60.97"/>
        <path class="cls-2" d="M68.13,60.97V25.2c0-2.82-2.29-5.11-5.11-5.11s-5.11,2.29-5.11,5.11v35.77"/>
        <g>
          <line class="cls-2" x1="40.35" y1="34.14" x2="51.53" y2="34.14"/>
          <polyline class="cls-2" points="28.62 30.67 32.5 33.88 37.71 29.08"/>
        </g>
        <g>
          <line class="cls-2" x1="40.35" y1="46.05" x2="51.53" y2="46.05"/>
          <polyline class="cls-2" points="28.62 42.59 32.5 45.8 37.71 41"/>
        </g>
        <g>
          <line class="cls-2" x1="40.35" y1="57.95" x2="51.53" y2="57.95"/>
          <polyline class="cls-2" points="28.62 54.5 32.5 57.71 37.71 52.91"/>
        </g>
      </g>
      <rect class="cls-1" width="90" height="90"/>
    </g>
  </g>
</svg>