<?xml version="1.0" encoding="UTF-8"?>
<svg id="_レイヤー_2" data-name="レイヤー 2" xmlns="http://www.w3.org/2000/svg" viewBox="0 0 90 90">
  <defs>
    <style>
      .cls-1, .cls-2 {
        fill: none;
      }

      .cls-2 {
        stroke: #3f70f5;
        stroke-miterlimit: 10;
        stroke-width: 2.4px;
      }
    </style>
  </defs>
  <g id="_レイヤー_1-2" data-name="レイヤー 1">
    <g>
      <g>
        <path class="cls-2" d="M36.48,66.39l-4.11,9.82h25.27l-5.04-12.03h-3.99v-10.29c11.06-7.07,20.81-9.79,20.93-23.1V13.79H20.46v16.99c.12,13.31,9.6,16.03,20.93,23.1v10.29"/>
        <path class="cls-2" d="M27.14,20.44v9.12c.07,7.59,4.15,10.65,9.82,13.97"/>
        <path class="cls-2" d="M71.9,39.23c.62-.11,1.22-.27,1.8-.48,3.97-1.46,6.81-5.28,6.81-9.76,0-5.74-4.66-10.4-10.4-10.4-.19,0-.38.02-.56.03"/>
        <path class="cls-2" d="M20.46,18.61c-.19-.01-.37-.03-.56-.03-5.74,0-10.4,4.66-10.4,10.4s4.66,10.4,10.4,10.4c.74,0,1.46-.08,2.16-.23"/>
      </g>
      <rect class="cls-1" width="90" height="90"/>
    </g>
  </g>
</svg>