<?xml version="1.0" encoding="UTF-8"?>
<svg id="_レイヤー_2" data-name="レイヤー 2" xmlns="http://www.w3.org/2000/svg" viewBox="0 0 90 90">
  <defs>
    <style>
      .cls-1, .cls-2 {
        fill: none;
      }

      .cls-2 {
        stroke: #fff;
        stroke-miterlimit: 10;
        stroke-width: 3px;
      }
    </style>
  </defs>
  <g id="_レイヤー_1-2" data-name="レイヤー 1">
    <g>
      <g>
        <g id="icon_data" data-name="icon data">
          <circle class="cls-2" cx="46.65" cy="23.92" r="6.79"/>
          <line class="cls-2" x1="63.42" y1="41.36" x2="46.65" y2="41.36"/>
          <path class="cls-2" d="M46.7,31.19v19.68c0,1.5,1.22,2.72,2.72,2.72h14.54l6.42,11.22,6.19-3.07"/>
          <path class="cls-2" d="M55.83,64.44c-3.32,7.25-11.89,10.43-19.14,7.11-7.25-3.32-10.43-11.89-7.11-19.14,1.3-2.85,3.5-5.19,6.25-6.68"/>
        </g>
        <path class="cls-2" d="M30.92,32.42c-1.77-1.71-4.58-1.71-6.35,0h0l-1.76,1.71-1.77-1.71c-1.82-1.67-4.63-1.6-6.36.15-1.67,1.67-1.67,4.38,0,6.04l8.16,7.91,6.35-6.19h0l1.77-1.71c1.71-1.63,1.77-4.33.15-6.04-.05-.05-.1-.1-.15-.15l-.03-.02Z"/>
      </g>
      <rect class="cls-1" width="90" height="90"/>
    </g>
  </g>
</svg>