<?xml version="1.0" encoding="UTF-8"?>
<svg id="_レイヤー_2" data-name="レイヤー 2" xmlns="http://www.w3.org/2000/svg" xmlns:xlink="http://www.w3.org/1999/xlink" viewBox="0 0 261.98 5">
  <defs>
    <style>
      .cls-1 {
        fill: url(#_新規グラデーションスウォッチ_1);
      }
    </style>
    <linearGradient id="_新規グラデーションスウォッチ_1" data-name="新規グラデーションスウォッチ 1" x1="-8.39" y1="2.5" x2="261.46" y2="2.5" gradientUnits="userSpaceOnUse">
      <stop offset="0" stop-color="#00259d"/>
      <stop offset=".04" stop-color="#0f3097"/>
      <stop offset=".43" stop-color="#b0aa5b"/>
      <stop offset=".6" stop-color="#f1db43"/>
      <stop offset=".69" stop-color="#dcc537"/>
      <stop offset=".87" stop-color="#a68f18"/>
      <stop offset="1" stop-color="#7b6300"/>
    </linearGradient>
  </defs>
  <g id="_レイヤー_1-2" data-name="レイヤー 1">
    <g>
      <path class="cls-1" d="M2.53,5c-1.38,0-2.53-1.12-2.53-2.5S1.09,0,2.48,0h.05c1.38,0,2.5,1.12,2.5,2.5s-1.12,2.5-2.5,2.5Z"/>
      <path class="cls-1" d="M249.25,5h-.1c-1.38,0-2.5-1.12-2.5-2.5s1.12-2.5,2.5-2.5h.1c1.38,0,2.5,1.12,2.5,2.5s-1.12,2.5-2.5,2.5ZM238.97,5h-.1c-1.38,0-2.5-1.12-2.5-2.5s1.12-2.5,2.5-2.5h.1c1.38,0,2.5,1.12,2.5,2.5s-1.12,2.5-2.5,2.5ZM228.69,5h-.1c-1.38,0-2.5-1.12-2.5-2.5s1.12-2.5,2.5-2.5h.1c1.38,0,2.5,1.12,2.5,2.5s-1.12,2.5-2.5,2.5ZM218.41,5h-.1c-1.38,0-2.5-1.12-2.5-2.5s1.12-2.5,2.5-2.5h.1c1.38,0,2.5,1.12,2.5,2.5s-1.12,2.5-2.5,2.5ZM208.13,5h-.1c-1.38,0-2.5-1.12-2.5-2.5s1.12-2.5,2.5-2.5h.1c1.38,0,2.5,1.12,2.5,2.5s-1.12,2.5-2.5,2.5ZM197.85,5h-.1c-1.38,0-2.5-1.12-2.5-2.5s1.12-2.5,2.5-2.5h.1c1.38,0,2.5,1.12,2.5,2.5s-1.12,2.5-2.5,2.5ZM187.57,5h-.1c-1.38,0-2.5-1.12-2.5-2.5s1.12-2.5,2.5-2.5h.1c1.38,0,2.5,1.12,2.5,2.5s-1.12,2.5-2.5,2.5ZM177.29,5h-.1c-1.38,0-2.5-1.12-2.5-2.5s1.12-2.5,2.5-2.5h.1c1.38,0,2.5,1.12,2.5,2.5s-1.12,2.5-2.5,2.5ZM167.01,5h-.1c-1.38,0-2.5-1.12-2.5-2.5s1.12-2.5,2.5-2.5h.1c1.38,0,2.5,1.12,2.5,2.5s-1.12,2.5-2.5,2.5ZM156.73,5h-.1c-1.38,0-2.5-1.12-2.5-2.5s1.12-2.5,2.5-2.5h.1c1.38,0,2.5,1.12,2.5,2.5s-1.12,2.5-2.5,2.5ZM146.45,5h-.1c-1.38,0-2.5-1.12-2.5-2.5s1.12-2.5,2.5-2.5h.1c1.38,0,2.5,1.12,2.5,2.5s-1.12,2.5-2.5,2.5ZM136.17,5h-.1c-1.38,0-2.5-1.12-2.5-2.5s1.12-2.5,2.5-2.5h.1c1.38,0,2.5,1.12,2.5,2.5s-1.12,2.5-2.5,2.5ZM125.89,5h-.1c-1.38,0-2.5-1.12-2.5-2.5s1.12-2.5,2.5-2.5h.1c1.38,0,2.5,1.12,2.5,2.5s-1.12,2.5-2.5,2.5ZM115.61,5h-.1c-1.38,0-2.5-1.12-2.5-2.5s1.12-2.5,2.5-2.5h.1c1.38,0,2.5,1.12,2.5,2.5s-1.12,2.5-2.5,2.5ZM105.33,5h-.1c-1.38,0-2.5-1.12-2.5-2.5s1.12-2.5,2.5-2.5h.1c1.38,0,2.5,1.12,2.5,2.5s-1.12,2.5-2.5,2.5ZM95.05,5h-.1c-1.38,0-2.5-1.12-2.5-2.5s1.12-2.5,2.5-2.5h.1c1.38,0,2.5,1.12,2.5,2.5s-1.12,2.5-2.5,2.5ZM84.77,5h-.1c-1.38,0-2.5-1.12-2.5-2.5s1.12-2.5,2.5-2.5h.1c1.38,0,2.5,1.12,2.5,2.5s-1.12,2.5-2.5,2.5ZM74.49,5h-.1c-1.38,0-2.5-1.12-2.5-2.5s1.12-2.5,2.5-2.5h.1c1.38,0,2.5,1.12,2.5,2.5s-1.12,2.5-2.5,2.5ZM64.21,5h-.1c-1.38,0-2.5-1.12-2.5-2.5s1.12-2.5,2.5-2.5h.1c1.38,0,2.5,1.12,2.5,2.5s-1.12,2.5-2.5,2.5ZM53.93,5h-.1c-1.38,0-2.5-1.12-2.5-2.5s1.12-2.5,2.5-2.5h.1c1.38,0,2.5,1.12,2.5,2.5s-1.12,2.5-2.5,2.5ZM43.65,5h-.1c-1.38,0-2.5-1.12-2.5-2.5s1.12-2.5,2.5-2.5h.1c1.38,0,2.5,1.12,2.5,2.5s-1.12,2.5-2.5,2.5ZM33.37,5h-.1c-1.38,0-2.5-1.12-2.5-2.5s1.12-2.5,2.5-2.5h.1c1.38,0,2.5,1.12,2.5,2.5s-1.12,2.5-2.5,2.5ZM23.09,5h-.1c-1.38,0-2.5-1.12-2.5-2.5s1.12-2.5,2.5-2.5h.1c1.38,0,2.5,1.12,2.5,2.5s-1.12,2.5-2.5,2.5ZM12.81,5h-.1c-1.38,0-2.5-1.12-2.5-2.5s1.12-2.5,2.5-2.5h.1c1.38,0,2.5,1.12,2.5,2.5s-1.12,2.5-2.5,2.5Z"/>
      <path class="cls-1" d="M259.48,5c-1.38,0-2.52-1.12-2.52-2.5s1.09-2.5,2.47-2.5h.05c1.38,0,2.5,1.12,2.5,2.5s-1.12,2.5-2.5,2.5Z"/>
    </g>
  </g>
</svg>