<?xml version="1.0" encoding="UTF-8"?>
<svg id="_レイヤー_2" data-name="レイヤー 2" xmlns="http://www.w3.org/2000/svg" viewBox="0 0 104 104">
  <defs>
    <style>
      .cls-1 {
        fill: none;
      }

      .cls-2 {
        fill: #252c71;
      }
    </style>
  </defs>
  <g id="_レイヤー_1-2" data-name="レイヤー 1">
    <g>
      <g>
        <path class="cls-2" d="M66.84,60.97c-2.38,2.38-5.54,3.72-8.92,3.78-1.56.03-3.09-.21-4.54-.72-1.23-.43-2.38-1.04-3.44-1.83-.51-.38-.99-.79-1.43-1.23s-.83-.89-1.21-1.39c-2.67-3.55-3.31-8.28-1.72-12.43.89-.13,1.79-.02,2.62.3-1.51,3.28-1.23,7.09.78,10.12.38.58.83,1.12,1.32,1.61s1.06.96,1.66,1.35c1.3.85,2.75,1.39,4.32,1.6,1.96.26,3.95-.03,5.75-.86,1.14-.52,2.16-1.23,3.02-2.09l14.47-14.47c4.07-4.07,4.07-10.68,0-14.75-4.07-4.07-10.68-4.07-14.75,0l-7.56,7.56c-.69-.52-1.43-.98-2.18-1.39l7.96-7.96c5.05-5.05,13.28-5.05,18.33,0,5.05,5.05,5.05,13.28,0,18.33l-14.47,14.47Z"/>
        <path class="cls-2" d="M41.02,75.83c-5.05,5.05-13.28,5.05-18.33,0-5.05-5.05-5.05-13.28,0-18.33l14.47-14.47c2.38-2.38,5.54-3.72,8.92-3.78,1.56-.03,3.09.21,4.54.72,1.23.43,2.38,1.04,3.44,1.83.51.38.99.79,1.43,1.24s.83.89,1.21,1.39c2.67,3.55,3.31,8.28,1.72,12.43-.89.13-1.79.02-2.62-.3,1.51-3.28,1.23-7.09-.78-10.12-.39-.58-.83-1.12-1.32-1.61s-1.06-.96-1.66-1.35c-1.3-.85-2.75-1.39-4.32-1.6-1.96-.26-3.95.03-5.75.86-1.14.52-2.16,1.23-3.02,2.09l-14.47,14.47c-4.07,4.07-4.07,10.68,0,14.75,4.07,4.07,10.68,4.07,14.75,0l7.56-7.56c.7.52,1.43.98,2.19,1.39l-7.96,7.96Z"/>
      </g>
      <rect class="cls-1" width="104" height="104"/>
    </g>
  </g>
</svg>