<?xml version="1.0" encoding="UTF-8"?>
<svg id="_レイヤー_2" data-name="レイヤー 2" xmlns="http://www.w3.org/2000/svg" viewBox="0 0 39.4 49.51">
  <defs>
    <style>
      .cls-1 {
        fill: #252c71;
      }
    </style>
  </defs>
  <g id="_レイヤー_1-2" data-name="レイヤー 1">
    <path class="cls-1" d="M19.57,43.45c-5.92,0-10.66-1.97-14.22-5.9S0,28.49,0,22.18C0,15.42,1.83,10.03,5.48,6.02S14.08,0,20.33,0c5.72,0,10.33,1.94,13.83,5.83s5.24,8.98,5.24,15.29c0,4.41-.77,8.27-2.31,11.57s-3.69,5.85-6.45,7.65l8.44,6.21-2.43,2.96-9.4-7.35c-1.15.39-2.37.7-3.65.94s-2.62.35-4.03.35ZM19.89,3.37c-4.71,0-8.55,1.69-11.54,5.08s-4.48,7.84-4.48,13.34,1.43,9.93,4.29,13.26,6.66,5,11.38,5c4.96,0,8.87-1.62,11.72-4.85s4.28-7.75,4.28-13.55-1.39-10.27-4.17-13.48-6.61-4.8-11.47-4.8Z"/>
  </g>
</svg>