<?xml version="1.0" encoding="UTF-8"?>
<svg id="_レイヤー_2" data-name="レイヤー 2" xmlns="http://www.w3.org/2000/svg" viewBox="0 0 610.22 610.22">
  <defs>
    <style>
      .cls-1 {
        fill: #fff;
      }
    </style>
  </defs>
  <g id="_レイヤー_1-2" data-name="レイヤー 1">
    <path class="cls-1" d="M305.11,0C136.6,0,0,136.6,0,305.11s136.6,305.11,305.11,305.11,305.11-136.6,305.11-305.11S473.61,0,305.11,0ZM305.11,470.69c-13.78,0-24.99-11.21-24.99-24.99s11.21-24.99,24.99-24.99,24.99,11.21,24.99,24.99-11.21,24.99-24.99,24.99ZM394.73,224.03c-.31,33.27-18.74,63.4-48.18,78.83-9.43,6.08-16.82,14.65-21.44,24.87-3.82,12.24-5.78,24.94-5.85,37.77l-28.3-.14c.08-15.95,2.57-31.74,7.41-46.94l.23-.71.3-.68c6.95-15.87,18.38-29.15,33.03-38.4l1.08-.62c20.44-10.52,33.26-31.34,33.43-54.33v-.28c.08-2.67-.05-5.38-.39-8.04-1.76-14.04-8.89-26.55-20.07-35.23-11.18-8.68-25.07-12.48-39.1-10.72l-1.17.15-1.18-.05c-31.79-1.29-59.15,23.41-61.08,55.13l-28.25-1.72c1.39-22.89,11.54-43.96,28.57-59.33,16.74-15.1,38.29-23.01,60.77-22.4,21.14-2.36,41.98,3.51,58.81,16.59,17.15,13.32,28.08,32.51,30.79,54.05.51,4.04.71,8.14.61,12.2Z"/>
  </g>
</svg>