<?xml version="1.0" encoding="UTF-8"?>
<svg id="_レイヤー_2" data-name="レイヤー 2" xmlns="http://www.w3.org/2000/svg" viewBox="0 0 90 90">
  <defs>
    <style>
      .cls-1 {
        fill: #fff;
      }

      .cls-2, .cls-3 {
        fill: none;
      }

      .cls-3 {
        stroke: #fff;
        stroke-miterlimit: 10;
        stroke-width: 2.4px;
      }
    </style>
  </defs>
  <g id="_レイヤー_1-2" data-name="レイヤー 1">
    <g>
      <g>
        <g>
          <path class="cls-1" d="M32.74,40.22s0-.05-.02-.08c-.02-.02-.04-.03-.07-.03h-2.33s-.09.03-.09.08c-.08.44-.18.84-.45,1.49l-2.47,6.06-2.48-6.06c-.21-.53-.38-1.05-.46-1.49,0-.04-.05-.08-.09-.08h-2.32s-.05.01-.07.03c-.02.02-.03.05-.02.08.07.5.1,1.02.1,1.86v6.35c0,.86-.03,1.34-.1,1.83,0,.03,0,.05.02.08.02.02.04.03.07.03h1.77s.05-.01.07-.03c.02-.02.03-.05.02-.08-.07-.48-.1-.96-.1-1.83v-4.15c0-.17-.02-.64-.05-1.14.14.46.25.74.41,1.13l1.82,4.34c.31.75.49,1.32.55,1.69,0,.05.05.08.09.08h1.49s.08-.03.09-.08c.08-.39.32-1.11.55-1.67l1.9-4.46c.06-.14.2-.52.35-1.01-.01.28-.03.64-.05,1.06v4.2c0,.87-.03,1.32-.1,1.83,0,.03,0,.05.02.08.02.02.04.03.07.03h1.77s.05-.01.07-.03.03-.05.02-.08c-.08-.47-.1-.91-.1-1.83v-6.35c0-.82.02-1.24.1-1.86Z"/>
          <path class="cls-1" d="M40.59,39.91c-1.38,0-2.44.41-3.33,1.29-.95.92-1.47,2.35-1.47,4.02,0,3.26,1.89,5.37,4.81,5.37s4.83-2.11,4.83-5.37c0-1.68-.5-3.07-1.44-4.01-.87-.87-1.98-1.29-3.4-1.29ZM40.63,48.89c-.74,0-1.4-.26-1.89-.74-.64-.64-1-1.68-1-2.92,0-2.24,1.1-3.64,2.88-3.64.73,0,1.38.26,1.88.74.64.64.97,1.63.97,2.88,0,2.27-1.09,3.68-2.84,3.68Z"/>
          <path class="cls-1" d="M54.53,45.47c.57-.18.86-.36,1.17-.68.45-.46.67-1.12.67-1.95,0-1.73-1.14-2.73-3.12-2.73h-3.04c-.68,0-1.08-.01-1.62-.04-.03,0-.06,0-.07.03-.02.02-.03.05-.03.08.08.61.1.99.1,1.63v6.82c0,.8-.03,1.13-.1,1.63,0,.03,0,.06.02.08.02.02.04.03.07.03h1.89s.05-.01.07-.03c.02-.02.03-.05.02-.08-.08-.49-.1-.89-.1-1.64v-2.49h1.79c.93,0,1.34.44,2.01,2.15.43,1.1.63,1.72.65,2,0,.05.05.09.09.09h2.09s.06-.02.08-.05c.02-.03.02-.06,0-.09-.18-.35-.5-1.03-.59-1.25-1.12-2.64-1.43-3.23-2.08-3.52ZM54.44,43.03c0,.45-.12.79-.38,1.05-.27.27-.68.43-1.13.43h-2.45v-2.76h2.5c.98,0,1.46.42,1.46,1.28Z"/>
          <path class="cls-1" d="M67.4,48.61s-.05-.02-.07-.02c-.52.06-.88.09-1.61.09h-3.7v-2.8h2.99c.77,0,1.12.01,1.63.09.03,0,.05,0,.08-.02.02-.02.03-.04.03-.07v-1.66s-.01-.05-.03-.07c-.02-.02-.05-.02-.07-.02-.57.06-1,.09-1.63.09h-2.98v-2.42h3.55c.71,0,1.12.02,1.62.09.03,0,.05,0,.08-.02.02-.02.03-.04.03-.07v-1.67s-.01-.05-.03-.07c-.02-.02-.04-.02-.07-.02-.61.07-1.02.09-1.62.09h-3.82c-.75,0-1.08-.01-1.6-.04-.03,0-.06,0-.07.03-.02.02-.03.05-.03.08.08.61.1.99.1,1.62v6.85c0,.74-.03,1.15-.1,1.66,0,.03,0,.06.02.08.02.02.04.03.07.03h0c.52-.03.86-.04,1.6-.04h3.95c.74,0,1.15.02,1.62.09,0,0,0,0,.01,0,.02,0,.04,0,.06-.02.02-.02.03-.04.03-.07v-1.68s-.01-.05-.03-.07Z"/>
        </g>
        <circle class="cls-3" cx="45" cy="45" r="29.04"/>
      </g>
      <rect class="cls-2" width="90" height="90"/>
    </g>
  </g>
</svg>