<?xml version="1.0" encoding="UTF-8"?>
<svg id="_レイヤー_2" data-name="レイヤー 2" xmlns="http://www.w3.org/2000/svg" viewBox="0 0 90 90">
  <defs>
    <style>
      .cls-1, .cls-2 {
        fill: none;
      }

      .cls-2 {
        stroke: #3f70f5;
        stroke-miterlimit: 10;
        stroke-width: 2.4px;
      }
    </style>
  </defs>
  <g id="_レイヤー_1-2" data-name="レイヤー 1">
    <g>
      <g>
        <g id="icon_data" data-name="icon data">
          <circle class="cls-2" cx="47.28" cy="19.5" r="8.22"/>
          <line class="cls-2" x1="67.57" y1="40.59" x2="47.28" y2="40.59"/>
          <path class="cls-2" d="M47.34,28.29v23.81c0,1.81,1.47,3.29,3.29,3.29h17.6l7.77,13.57,7.49-3.71"/>
          <path class="cls-2" d="M58.38,68.53c-4.02,8.77-14.39,12.62-23.15,8.6-8.77-4.02-12.62-14.39-8.6-23.15,1.58-3.44,4.23-6.28,7.57-8.08"/>
        </g>
        <path class="cls-2" d="M28.25,29.78c-2.15-2.06-5.54-2.06-7.69,0h0l-2.13,2.07-2.14-2.07c-2.2-2.02-5.6-1.94-7.7.19-2.02,2.02-2.02,5.29,0,7.31l9.87,9.57,7.69-7.49h0l2.14-2.07c2.07-1.97,2.15-5.24.18-7.31-.06-.06-.12-.12-.18-.18l-.04-.02Z"/>
      </g>
      <rect class="cls-1" width="90" height="90"/>
    </g>
  </g>
</svg>