<?xml version="1.0" encoding="UTF-8"?>
<svg id="_レイヤー_2" data-name="レイヤー 2" xmlns="http://www.w3.org/2000/svg" viewBox="0 0 108.32 108.32">
  <defs>
    <style>
      .cls-1 {
        fill: #fff;
      }

      .cls-2 {
        fill: #06c755;
      }
    </style>
  </defs>
  <g id="_レイヤー_1-2" data-name="レイヤー 1">
    <g>
      <rect class="cls-2" width="108.32" height="108.32" rx="24.42" ry="24.42"/>
      <g>
        <path class="cls-1" d="M90.26,49.06c0-16.16-16.2-29.31-36.11-29.31s-36.11,13.15-36.11,29.31c0,14.49,12.85,26.62,30.2,28.91,1.18.25,2.78.78,3.18,1.78.36.91.24,2.34.12,3.27,0,0-.42,2.55-.52,3.09-.16.91-.73,3.57,3.13,1.95,3.85-1.62,20.8-12.25,28.37-20.97h0c5.23-5.74,7.74-11.56,7.74-18.03Z"/>
        <g>
          <path class="cls-2" d="M78.25,58.39h-10.15c-.38,0-.69-.31-.69-.69h0v-15.74h0v-.02c0-.38.31-.69.69-.69h10.15c.38,0,.69.31.69.69v2.56c0,.38-.31.69-.69.69h-6.9v2.66h6.9c.38,0,.69.31.69.69v2.56c0,.38-.31.69-.69.69h-6.9v2.66h6.9c.38,0,.69.31.69.69v2.56c0,.38-.31.69-.69.69Z"/>
          <path class="cls-2" d="M40.72,58.39c.38,0,.69-.31.69-.69v-2.56c0-.38-.31-.69-.69-.69h-6.9v-12.51c0-.38-.31-.69-.69-.69h-2.56c-.38,0-.69.31-.69.69v15.75h0c0,.39.31.7.69.7h10.15Z"/>
          <rect class="cls-2" x="43.57" y="41.25" width="3.94" height="17.14" rx=".69" ry=".69"/>
          <path class="cls-2" d="M64.26,41.25h-2.56c-.38,0-.69.31-.69.69v9.36l-7.21-9.74s-.04-.05-.06-.07c0,0,0,0,0,0-.01-.01-.03-.03-.04-.04,0,0,0,0-.01-.01-.01-.01-.02-.02-.04-.03,0,0-.01,0-.02-.01-.01,0-.02-.02-.04-.03,0,0-.01,0-.02-.01-.01,0-.03-.01-.04-.02,0,0-.01,0-.02-.01-.01,0-.03-.01-.04-.02,0,0-.01,0-.02,0-.01,0-.03,0-.04-.01,0,0-.02,0-.02,0-.01,0-.03,0-.04,0,0,0-.02,0-.03,0-.01,0-.02,0-.04,0-.01,0-.02,0-.04,0,0,0-.02,0-.02,0h-2.55c-.38,0-.69.31-.69.69v15.76c0,.38.31.69.69.69h2.56c.38,0,.69-.31.69-.69v-9.36l7.22,9.75c.05.07.11.13.18.17,0,0,0,0,0,0,.01,0,.03.02.04.03,0,0,.01,0,.02.01.01,0,.02.01.03.02.01,0,.02,0,.03.01,0,0,.01,0,.02,0,.02,0,.03.01.05.02,0,0,0,0,0,0,.06.02.12.02.18.02h2.55c.38,0,.69-.31.69-.69v-15.76c0-.38-.31-.69-.69-.69Z"/>
        </g>
      </g>
    </g>
  </g>
</svg>